Coordinates
version=1
nRows=102
nColumns=4
inDegrees=yes

Units are S.I. units (second, meters, Newtons, ...)
Angles are in degrees.

endheader
time	Hip_Angle	Knee_Angle	Ankle_Angle
      0.00000000	    126.68947938	    -77.40982476	    -30.21227547
      0.00833333	    126.85406396	    -77.38645172	    -30.20440632
      0.01666667	    126.79448759	    -77.37788353	    -30.19847385
      0.02500000	    126.79655859	    -77.38407775	    -30.20332057
      0.03333333	    126.91148741	    -77.35414730	    -30.19875866
      0.04166667	    126.74389093	    -77.38981968	    -30.21778224
      0.05000000	    126.73334991	    -77.36578393	    -30.21359822
      0.05833333	    126.72162806	    -77.33954022	    -30.20789466
      0.06666667	    126.71476579	    -77.32291528	    -30.20372427
      0.07500000	    126.72551141	    -77.30437390	    -30.19659097
      0.08333333	    126.71800218	    -77.31817271	    -30.20537173
      0.09166667	    126.73934945	    -77.32290891	    -30.20775734
      0.10000000	    126.72910915	    -77.36522568	    -30.22648027
      0.10833333	    126.74011056	    -77.39399840	    -30.23726051
      0.11666667	    126.78755861	    -77.39648426	    -30.23284708
      0.12500000	    126.80077256	    -77.40833412	    -30.23572666
      0.13333333	    126.83075306	    -77.39056955	    -30.22697970
      0.14166667	    126.78796627	    -77.41365776	    -30.23975461
      0.15000000	    126.73870130	    -77.42640331	    -30.25024254
      0.15833333	    126.71076532	    -77.40620930	    -30.24534858
      0.16666667	    126.70859794	    -77.37828059	    -30.23648953
      0.17500000	    126.70086638	    -77.36007340	    -30.22943291
      0.18333333	    126.69575430	    -77.34902541	    -30.22611683
      0.19166667	    126.68656532	    -77.35728012	    -30.22886480
      0.20000000	    126.68551563	    -77.38072237	    -30.23614643
      0.20833333	    126.68747263	    -77.40497690	    -30.24496128
      0.21666667	    126.68934067	    -77.43309122	    -30.25530849
      0.22500000	    126.70045155	    -77.45869918	    -30.26243020
      0.23333333	    126.79821882	    -77.51509084	    -30.29381889
      0.24166667	    126.80880031	    -77.51674154	    -30.29534920
      0.25000000	    126.79473052	    -77.51370637	    -30.29718006
      0.25833333	    126.73987635	    -77.52519825	    -30.31002903
      0.26666667	    126.71653211	    -77.47479317	    -30.29616608
      0.27500000	    126.67680804	    -77.41461930	    -30.27371709
      0.28333333	    126.66811408	    -77.39160559	    -30.26742921
      0.29166667	    126.66198346	    -77.37660265	    -30.26471424
      0.30000000	    126.65890096	    -77.37386191	    -30.26499991
      0.30833333	    126.64467187	    -77.38888820	    -30.27322486
      0.31666667	    126.63257706	    -77.41794594	    -30.28318533
      0.32500000	    126.63965602	    -77.45692680	    -30.29521374
      0.33333333	    126.67121662	    -77.48355024	    -30.29834785
      0.34166667	    126.96469858	    -77.49149270	    -30.29878261
      0.35000000	    127.03865986	    -77.50217255	    -30.29205490
      0.35833333	    127.08216755	    -77.49740707	    -30.28451293
      0.36666667	    127.02510825	    -77.50391413	    -30.28717522
      0.37500000	    126.94964331	    -77.48520665	    -30.28116948
      0.38333333	    126.76703978	    -77.42190784	    -30.24789053
      0.39166667	    126.74099420	    -77.38519386	    -30.23117426
      0.40000000	    126.73069507	    -77.35959280	    -30.21705152
      0.40833333	    126.72684823	    -77.34897632	    -30.20631898
      0.41666667	    126.73015336	    -77.35584518	    -30.20180730
      0.42500000	    126.73986027	    -77.37592644	    -30.20420704
      0.43333333	    126.75426523	    -77.41521807	    -30.21116110
      0.44166667	    126.91394770	    -77.42874105	    -30.21209036
      0.45000000	    127.00148047	    -77.41801967	    -30.19896921
      0.45833333	    127.04688864	    -77.48379960	    -30.22400650
      0.46666667	    127.05063177	    -77.49529506	    -30.22476766
      0.47500000	    127.01710094	    -77.44943877	    -30.19948364
      0.48333333	    126.96401380	    -77.47194750	    -30.20913389
      0.49166667	    126.79056552	    -77.48628394	    -30.20931720
      0.50000000	    126.78059668	    -77.46307542	    -30.20029032
      0.50833333	    126.77606193	    -77.44920395	    -30.19359916
      0.51666667	    126.79122696	    -77.43712763	    -30.18571180
      0.52500000	    126.77547178	    -77.45579023	    -30.19345189
      0.53333333	    126.78351972	    -77.47645608	    -30.20089408
      0.54166667	    126.79391824	    -77.50362686	    -30.21122609
      0.55000000	    126.79522768	    -77.53245547	    -30.22192994
      0.55833333	    126.81495910	    -77.54375386	    -30.22614658
      0.56666667	    126.85843040	    -77.52319575	    -30.21549573
      0.57500000	    126.88066637	    -77.57055320	    -30.24084514
      0.58333333	    126.85270237	    -77.50533195	    -30.21343451
      0.59166667	    126.79877107	    -77.51649746	    -30.22393629
      0.60000000	    126.78611152	    -77.48719924	    -30.21833819
      0.60833333	    126.77353110	    -77.45733365	    -30.21023463
      0.61666667	    126.77649537	    -77.44619895	    -30.21008757
      0.62500000	    126.76965717	    -77.40211189	    -30.19472927
      0.63333333	    126.76971686	    -77.40165872	    -30.19670851
      0.64166667	    126.77433557	    -77.41160779	    -30.20230556
      0.65000000	    126.78403250	    -77.43119404	    -30.21241840
      0.65833333	    126.80444622	    -77.45318153	    -30.21954215
      0.66666667	    126.82840848	    -77.46922203	    -30.22621183
      0.67500000	    126.90198214	    -77.44175401	    -30.21211119
      0.68333333	    126.90525809	    -77.44571719	    -30.21276210
      0.69166667	    126.92502752	    -77.45715440	    -30.22062396
      0.70000000	    126.88443736	    -77.47157813	    -30.23002568
      0.70833333	    126.86732565	    -77.42757209	    -30.21314300
      0.71666667	    126.86333525	    -77.40070276	    -30.20435990
      0.72500000	    126.86069967	    -77.37428225	    -30.19578524
      0.73333333	    126.86925265	    -77.35552552	    -30.18853976
      0.74166667	    126.87443236	    -77.34626305	    -30.18553953
      0.75000000	    126.88602990	    -77.37013983	    -30.19809562
      0.75833333	    126.89227208	    -77.38828925	    -30.20707467
      0.76666667	    126.90016617	    -77.40926544	    -30.21573554
      0.77500000	    126.91702199	    -77.42600410	    -30.22393035
      0.78333333	    126.92862705	    -77.41310709	    -30.21891755
      0.79166667	    126.96367521	    -77.39852954	    -30.21349982
      0.80000000	    126.98410986	    -77.44505893	    -30.23938664
      0.80833333	    126.92860440	    -77.43222843	    -30.23875981
      0.81666667	    126.88087302	    -77.40584221	    -30.23323607
      0.82500000	    126.86246106	    -77.38298236	    -30.22970984
      0.83333333	    126.83471237	    -77.36461424	    -30.22764802
      0.84166667	    126.82488958	    -77.34344373	    -30.22414964
